<?xml version="1.0" encoding="utf-8"?>
<!-- Generator: Adobe Illustrator 15.1.0, SVG Export Plug-In . SVG Version: 6.00 Build 0)  -->
<!DOCTYPE svg PUBLIC "-//W3C//DTD SVG 1.1//EN" "http://www.w3.org/Graphics/SVG/1.1/DTD/svg11.dtd">
<svg version="1.1" xmlns="http://www.w3.org/2000/svg" xmlns:xlink="http://www.w3.org/1999/xlink" x="0px" y="0px"
	 width="1450.271px" height="256.96px" viewBox="0 0 1450.271 256.96" enable-background="new 0 0 1450.271 256.96"
	 xml:space="preserve">
<g id="Layer_2">
	<g>
		<path fill-rule="evenodd" clip-rule="evenodd" fill="#4CC5FB" d="M62.976,0.012c39.956-0.441,67.886,11.76,79.76,39.372
			c2.272,5.284,3.512,11.105,4.746,17.658c0.505,2.688,0.134,5.369,0.593,8.28c0.409,2.604,0.335,7.218-0.085,9.801
			c-0.794,4.889-0.68,9.742-1.61,14.363c-1.938,9.639-3.764,18.667-7.035,26.868c-10.135,25.407-28.648,48.438-55.603,56.946
			c-4.111,1.298-8.449,2.034-13.138,2.873c-2.43,0.169-4.86,0.339-7.29,0.507c-3.17,0.517-7.152-0.102-9.833-0.592
			c-8.037-1.471-14.804-2.92-21.274-5.66c-2.099-0.889-6.435-2.253-7.543-3.972c-1.322-2.047-0.679-7.077-0.679-10.224
			c0.141-5.913,0.282-11.829,0.423-17.741c0.115-2.732,0.227-5.465,0.34-8.196c0.113-2.535,0.225-5.07,0.339-7.605
			c0.62-6.616,1.242-13.236,1.864-19.854c1.115-6.234,1.467-12.597,2.797-18.587c3.89-17.523,8.911-33.936,18.139-46.132
			c1.474-1.947,4.387-2.047,7.375-2.535c8.073-1.323,14.18,1,17.036,5.745c-1.835,3.396-4.451,6.416-6.102,10.139
			c-2.85,6.426-5.046,13.253-7.206,20.447c-1.383,4.611-1.789,9.43-2.797,14.448c-2.561,12.758-3.078,26.854-5.509,39.88
			c-1.137,6.092-1.44,12.456-1.441,19.348c0,3.663-0.138,7.663,1.356,9.885c1.184,1.76,3.295,2.103,5.849,2.535
			c3.272,0.552,7.234-0.123,9.833-0.677c8.996-1.913,15.422-5.102,21.699-9.547c17.967-12.727,27.502-32.521,33.735-57.031
			c2.783-10.944,3.942-26.123,0.424-37.26c-2.138-6.771-5.796-11.752-9.748-16.645c-1.422-1.762-3.495-3.216-5.34-4.563
			c-6.083-4.444-13.06-7.161-21.953-8.957c-3.524-0.71-10.88-1.354-15.003-0.675c-3.051,0.169-6.103,0.338-9.154,0.507
			c-6.571,1.127-12.718,1.87-18.308,3.632c-6.517,2.056-13.217,4.859-17.038,9.633c-2.206,2.758-4.008,5.946-5.932,8.956
			c-2.661,4.156-5.709,8.179-8.731,11.998c-1.25,1.578-4.936,5.948-8.051,4.309c-2.405-1.265-2.195-4.533-2.712-7.773
			c-0.274-1.715-0.19-4.192,0.084-5.83c0.169-1.831,0.339-3.661,0.509-5.491c0.688-3.422,1.483-6.662,2.626-9.548
			C10.212,15.822,23.674,7.176,42.886,2.293c4.166-1.059,8.67-1.18,13.223-1.943C58.397,0.236,60.687,0.124,62.976,0.012z"/>
		<path fill-rule="evenodd" clip-rule="evenodd" fill="#4CC5FB" d="M348.365,29.414c11.303-0.173,20.183,5.499,17.292,17.743
			c-0.378,1.602-0.852,3.343-1.611,4.647c-3.62,6.223-12.376,10.806-22.8,8.195c-9.658-2.419-14.316-14.062-7.797-23.235
			c2.182-3.071,5.536-5.391,9.577-6.59C344.581,29.714,346.717,30.049,348.365,29.414z"/>
		<path fill-rule="evenodd" clip-rule="evenodd" fill="#4CC5FB" d="M545.52,138.153c-1.355,0.731-2.713,1.465-4.069,2.196
			c-2.929,2.071-5.515,4.493-9.747,5.323c-6.304,1.235-7.846-11.568-6.78-17.912c0.226-2.309,0.451-4.619,0.678-6.928
			c1.157-7.547,2.317-15.097,3.476-22.644c1.891-8.5,3.072-17.001-1.951-23.234c-3.889-4.827-13.928-2.541-17.967,0.507
			c-3.718,2.804-5.552,7.456-7.968,11.575c-2.345,4.364-4.69,8.73-7.035,13.095c-1.159,2.958-2.316,5.778-3.475,8.735
			c-1.018,1.941-2.035,3.693-3.052,5.693c-0.621,0-1.242,0-1.863,0c0.338-2,0.677-5.723,1.016-8.65
			c0.284-2.197,0.564-4.325,0.847-6.522c1.839-9.686,5.973-29.751-9.154-27.256c-1.129,0.281-2.26,0.581-3.39,0.862
			c-2.739,1.166-5.001,3.724-6.188,6.431c-1.191,2.714-1.508,5.955-2.289,9.128c-1.757,7.151-2.468,14.891-3.813,22.561
			c-0.34,3.127-0.678,6.254-1.018,9.381c-2.373,3.604-4.747,7.21-7.121,10.814c-6.413,9.604-15.412,21.673-25.935,26.954
			c0.565-6.111,1.129-12.225,1.695-18.335c0.785-4.743,0.373-9.574,1.271-14.026c1.179-5.832,2.568-10.939,3.814-16.561
			c0.254-2.28,0.509-4.562,0.763-6.843c0.058-2.252,0.114-4.507,0.17-6.759c0.875-5.274-0.142-13.652-2.798-15.715
			c-3.343-2.599-9.334-0.269-13.478-1.859c-4.585-1.761-3.995-5.745-10.17-6.845c-8.417-1.497-17.497,4.756-21.785,8.027
			c-12.174,9.292-17.645,21.462-23.732,36.838c-2.725,6.885-5.553,13.835-5.339,23.488c-4.291,2.808-7.978,6.361-13.139,8.364
			c-1.641,0.638-5.076,1.294-6.781,0.255c-3.292-2.012-2.816-11.015-1.864-15.462c0.875-3.802,1.752-7.605,2.627-11.406
			c0.737-3.413,1.021-6.655,1.951-9.802c1.892-6.279,3.785-12.561,5.677-18.841c1.216-4.348,5.797-17.232,0.763-19.771
			c-5.515-2.781-15.617,1.305-18.731,3.634c-4.222,3.157-4.515,10.391-6.188,16.053c-1.751,6.252-3.503,12.506-5.255,18.758
			c-1.353,4.362-2.309,8.886-3.39,13.855c-0.396,2.14-0.792,4.281-1.188,6.422c-2.889,1.84-6.257,3.225-9.493,4.646
			c-4.581,2.015-8.999,4.509-13.139,6.929c0.115-3.465,0.227-6.929,0.34-10.393c0.599-3.582,0.769-8.674-0.085-12.082
			c-1.271-4.788-2.542-9.577-3.815-14.363c-0.317-1.334-1.199-5.076-0.678-6.845c0.519-1.756,2.499-3.071,3.56-4.393
			c3.147-3.915,7.78-7.69,8.815-13.52c-0.056-0.844-0.112-1.689-0.168-2.534c-1.023-6.039-4.925-6.437-11.02-7.435
			c-2.877-0.472-5.662,0.581-7.459,1.352c-6.6,2.83-10.341,9.244-14.408,14.617c-14.184,18.736-26.558,37.889-47.382,50.103
			c-5.702,3.345-11.853,5.69-19.24,7.35c-2.889,0.649-7.548,0.861-10.172-0.168c-3.433-1.349-5.831-4.62-7.459-7.772
			c18.182-4.605,35.771-18.189,40.432-36.078c1.245-4.778,0.332-10.754-1.187-14.448c-4.014-9.771-16.164-17.707-31.022-13.94
			c-4.518,1.145-8.369,3.05-11.698,5.407c-12.794,9.062-18.883,26.076-22.207,44.525c-1.21,6.715,0.757,14.898,2.288,19.771
			c3.607,11.479,11.138,19.899,22.631,23.489c2.21,0.69,4.625,0.925,7.121,1.353c0.932,0.028,1.865,0.057,2.797,0.084
			c3.375,0.572,7.682-0.107,10.596-0.76c12.693-2.842,21.785-8.208,31.021-14.279c0.531,3.302,2.121,5.641,3.814,7.772
			c10.434,13.141,39.783,7.526,54.925,2.788c3.326-1.039,6.451-2.136,9.494-3.38c4.052-1.655,7.805-3.381,11.611-5.153
			c1.071,9.426,10.104,14.864,21.698,12.842c8.116-1.414,15.307-4.044,21.446-7.604c2.656-1.576,5.311-3.154,7.968-4.73
			c0.057-0.057,0.112-0.113,0.168-0.169c4.032,7.469,15.822,15.862,28.142,11.997c4.231-1.328,7.752-3.515,10.934-5.915
			c1.243-1.068,2.487-2.14,3.73-3.21c-0.622,3.746-1.243,7.492-1.865,11.237c-1.469,1.267-2.938,2.535-4.407,3.803
			c-2.345,2.365-4.69,4.73-7.036,7.097c-1.44,1.491-2.882,2.984-4.323,4.479c-2.994,3.406-5.989,6.815-8.984,10.223
			c-3.886,5.128-7.023,10.6-10.425,16.308c-1.602,2.687-3.358,5.409-4.661,8.363c-1.275,2.892-2.3,5.98-3.052,9.379
			c-2.544,11.495,2.506,20.776,9.324,24.755c2.567,1.498,5.671,2.404,8.984,3.127c7.578,1.651,15.848-0.336,20.853-2.873
			c13.803-6.998,19.005-22.089,22.291-39.626c0.933-7.941,1.864-15.885,2.797-23.826c0.648-3.646,0.669-7.285,1.949-10.224
			c1.621-3.725,9.936-8.028,13.562-10.309c7.109-4.467,12.782-10.268,18.479-16.137c0.338,1.831,0.678,3.662,1.016,5.492
			c1.618,5.14,6.061,10.299,13.731,8.363c1.31-0.329,2.667-0.894,3.646-1.604c3.494-2.536,6.883-11.382,9.069-15.655
			c6.639-13.15,13.28-26.396,19.919-39.396c0.48,0,0.96,0,1.441,0c-0.622,5-1.243,9.064-1.866,13.627
			c-1.773,9.934-1.12,24.569,1.696,32.583c1.401,3.99,3.322,8.398,7.035,10.04c3.302,1.459,8.939,0.338,12.036-0.599
			c8.851-2.676,16.858-8.144,24.563-11.818l0.085-20.956C550.419,134.677,547.469,136.914,545.52,138.153z M179.522,121.425
			c0.027-10.661,4.915-24.034,11.188-28.221c1.894-1.264,7.983-4.058,11.02-1.858c3.529,2.557,3.974,9.954,1.61,13.94
			C199.424,111.892,189.836,121.493,179.522,121.425z M260.723,152.264c-1.711,0.467-4.705,0.687-6.612,0.168
			c-3.315-0.898-4.599-3.208-7.034-4.394c-1.329-1.351-2.657-2.704-3.983-4.055c2.404-1.766,4.907-4.194,6.781-6.507
			c0.649-0.675,1.299-1.351,1.949-2.026c-0.197-0.227-0.396-0.451-0.593-0.677c-0.254-0.253-0.509-0.508-0.763-0.76
			c5.848-6.14,11.697-12.28,17.545-18.42c0.253,0.788,0.508,1.578,0.763,2.366c0.553,1.793,1.094,4.408,0.678,6.928
			c-0.277,1.685-0.662,4.064-0.338,6.084C270.77,141.301,269.007,149.997,260.723,152.264z M404.478,196.028
			c-0.453,3.549-0.906,7.098-1.356,10.646c-1.797,9.998-4.891,21.114-10.172,27.714c-1.632,2.039-6.239,5.274-10.596,3.548
			c-4.663-1.85-0.303-11.247,0.848-14.024c3.713-8.955,8.482-17.272,14.07-24.419c1.526-1.633,3.053-3.266,4.578-4.9
			c0.96-0.788,1.922-1.577,2.882-2.365C405.086,192.699,404.637,195.152,404.478,196.028z M406.512,122.172
			c-0.17,1.887-0.34,3.612-0.509,5.499c-0.913,4.439-2.132,8.352-3.73,12.001c-1.641,3.743-6.162,11.622-12.629,8.999
			c-6.21-2.518-7.513-15.194-5.255-23.425c1.641-5.982,4.671-11.32,7.544-16.231c3.709-6.34,6.873-12.72,13.051-16.565
			c1.338-0.833,2.946-1.226,4.578-1.706c0.934-0.169,1.865-0.183,2.797-0.183c0.481,0,0.961,0,1.441,0
			C411.371,100.561,408.941,111.527,406.512,122.172z"/>
	</g>
</g>
<g id="Layer_1">
	<path fill-rule="evenodd" clip-rule="evenodd" fill="#FFFFFF" d="M917.432,82.642c0,20.05,0,40.106,0,60.156
		c8.185,0.047,19.772,0.882,26.36-0.929c10.787-2.964,17.592-9.896,20.766-20.446c0.684-2.268,0.589-4.497,1.018-7.183
		c0.668-4.17-0.355-8.979-1.356-12.167c-1.413-4.507-3.734-7.822-6.356-11.067c-0.975-1.208-2.442-2.134-3.729-3.042
		C945,81.521,932.825,82.623,917.432,82.642z M1259.018,132.067c0.348,20.929-12.596,31.385-29.072,35.655
		c-19.942,5.168-43.344-0.271-56.027-8.195c-3.314-2.07-7.309-4.404-9.662-7.436c4.999-7.097,10.003-14.194,15.002-21.291
		c0.396,0.394,0.791,0.789,1.186,1.183c0.851,0.732,1.697,1.465,2.543,2.197c2.121,1.464,4.238,2.929,6.357,4.394
		c4.474,2.672,9.69,4.535,15.514,5.829c2.372,0.281,4.744,0.563,7.118,0.846c7.504,1.22,19.323-2.642,18.055-9.632
		c-1.032-5.685-8.542-6.581-13.986-7.942c-14.002-3.502-27.209-5.042-37.125-12.505c-8.769-6.599-14.823-21.264-9.153-35.569
		c3.262-8.233,9.159-13.591,16.443-17.828c4.434-2.58,9.944-3.829,15.766-4.985c2.796-0.226,5.594-0.451,8.392-0.676
		c14.992-0.246,27.188,3.25,36.53,8.786c2.983,1.768,7.342,3.994,9.409,6.59c0,0.059,0,0.114,0,0.17
		c-5.143,6.703-10.284,13.407-15.426,20.109c-0.622-0.479-1.242-0.958-1.866-1.438c-1.749-1.126-3.502-2.253-5.255-3.38
		c-1.735-1.016-3.568-1.738-5.509-2.533c-7.384-3.024-29.479-8.749-31.445,3.125c-0.461,2.79,1.492,4.201,2.966,5.154
		c4.235,2.741,10.268,3.589,15.849,4.985c14.551,3.639,29.162,6.283,37.127,16.391c1.757,2.231,3.285,4.749,4.406,7.604
		c0.369,1.239,0.736,2.48,1.104,3.719c0.028,0,0.057,0,0.084,0 M656.624,57.801c9.632,0.028,19.269,0.057,28.902,0.085
		c0,15.234,0,30.474,0,45.709c0,4.956,0,9.914,0,14.87c0,2.984-0.194,6.157,0.34,8.702c2.146,10.229,8.026,15.122,18.647,16.983
		c2.54,0.445,6.414,0.494,8.985,0c8.781-1.688,14.044-5.838,16.952-13.35c1.865-4.819,1.272-12.459,1.272-19.011
		c0-12.109,0-24.222,0-36.331c0.028-5.885,0.056-11.772,0.084-17.658c9.577,0.028,19.156,0.057,28.732,0.085
		c0,16.698,0,33.402,0,50.103c0.002,11.303,0.391,22.95-2.287,31.43c-4.191,13.273-13.155,21.54-25.768,26.446
		c-5.385,2.095-11.329,2.442-17.969,3.549c-1.413,0.027-2.826,0.056-4.238,0.084c-4.64,0.737-12.439-0.419-16.273-1.268
		c-19.943-4.408-31.817-14.176-36.447-33.797c-1.185-5.02-1.017-11.096-1.017-17.235c0-7.604,0-15.209,0-22.812
		C656.567,82.191,656.595,69.995,656.624,57.801z M774.865,57.801c7.09,0,14.184,0,21.274,0c1.998,0,7.009-0.449,8.222,0.338
		c14.69,19.966,29.385,39.938,44.076,59.904c0.028,0,0.058,0,0.085,0c0.027-20.079,0.055-40.163,0.082-60.242
		c9.522,0.028,19.046,0.057,28.567,0.085c-0.028,36.58-0.057,73.172-0.085,109.753c-6.469,0-12.941,0-19.411,0
		c-1.998,0-6.657,0.491-8.138-0.169c-15.396-21.064-30.797-42.135-46.193-63.199c-0.028,0-0.057,0-0.084,0
		c-0.029,21.121-0.059,42.247-0.086,63.368c-9.464-0.028-18.931-0.057-28.395-0.085C774.808,130.974,774.836,94.383,774.865,57.801z
		 M889.038,57.801c12.063,0,24.129,0,36.193,0c9.809-0.001,19.401-0.124,27.206,1.859c19.583,4.973,32.274,15.495,39.161,33.12
		c1.631,4.175,2.103,8.836,2.967,13.856c0.367,2.137,0.524,5.204,0.169,7.35c-0.445,2.688-0.043,5.148-0.509,7.605
		c-1.103,5.835-2.519,10.809-4.576,15.461c-7.238,16.36-21.715,25.585-41.449,29.571c-8.032,1.624-18.246,1.015-27.63,1.015
		c-10.538-0.028-21.08-0.057-31.618-0.085C888.98,130.974,889.01,94.383,889.038,57.801z M1029.995,142.798
		c14.747,0.029,29.497,0.057,44.245,0.085c-0.028,8.251-0.057,16.504-0.085,24.756c-24.211-0.028-48.43-0.057-72.641-0.085
		c0.029-36.58,0.058-73.171,0.087-109.753c9.462,0.028,18.93,0.057,28.394,0.085C1029.995,86.188,1029.995,114.498,1029.995,142.798
		z M1110.347,82.642c0,5.632,0,11.266,0,16.898c17.036,0.027,34.076,0.056,51.112,0.083c-0.027,8.252-0.057,16.505-0.086,24.756
		c-17.005,0-34.018,0-51.026,0c0,6.14,0,12.28,0,18.419c17.433,0.029,34.866,0.057,52.299,0.085
		c-0.028,8.251-0.057,16.504-0.084,24.756c-26.896-0.028-53.798-0.057-80.694-0.085c0.028-36.58,0.059-73.171,0.086-109.753
		c26.895,0.028,53.798,0.057,80.692,0.085c-0.028,8.25-0.057,16.504-0.084,24.756C1145.159,82.642,1127.75,82.642,1110.347,82.642z
		 M551.783,57.301c14.549,0,29.104,0,43.65,0c22.207-0.001,36.338-1.021,45.771,12.251c5.613,7.898,7.059,21.02,1.356,30.163
		c-2.175,3.487-5.155,6.357-8.729,8.449c-1.43,0.835-4.85,1.493-5.934,2.366c3.803,0.14,7.188,2.397,9.578,4.14
		c7.352,5.359,13.943,17.716,10.001,30.924c-1.134,3.797-2.656,7.129-4.747,9.97c-3.858,5.243-9.756,8.729-17.037,10.561
		c-5.223,1.314-12.011,1.015-18.478,1.015c-9.831,0-19.665,0-29.495,0c-8.676-0.028-17.35-0.057-26.023-0.085 M580.177,82.296
		c0,6.026,0,12.055,0,18.082c7.316,0,14.636,0,21.953,0c5.572,0,9.902,0.094,12.629-2.62c1.51-1.501,3.166-4.288,2.543-7.772
		c-0.571-3.194-2.309-5.612-4.916-6.76c-2.752-1.21-7.192-0.93-11.188-0.93C594.192,82.296,587.184,82.296,580.177,82.296z
		 M580.177,124.541c0,6.533,0,13.069,0,19.603c7.401,0,14.805,0,22.207,0c6.42,0.001,10.685,0.229,14.239-2.62
		c1.667-1.335,3.45-4.721,2.882-8.11c-0.679-4.06-2.553-6.616-5.848-8.026c-2.793-1.195-7.403-0.846-11.358-0.846
		C594.925,124.541,587.55,124.541,580.177,124.541z"/>
	<g>
		<path fill-rule="evenodd" clip-rule="evenodd" fill="#FFFFFF" d="M1299.399,81.759c3.421-0.032,11.931-0.87,14.446,0.272
			c6.996,9.586,13.993,19.172,20.988,28.758c0.092,0,0.182,0,0.273,0c0-9.676,0-19.354,0-29.03c4.588,0,9.177,0,13.765,0
			c0,17.716,0,35.437,0,53.153c-2.083,0.031-12.503,0.48-13.356-0.273c-7.449-10.084-14.901-20.172-22.352-30.256
			c0,10.176,0,20.354,0,30.529c-4.588,0-9.177,0-13.765,0C1299.399,117.195,1299.399,99.475,1299.399,81.759z"/>
		<path fill-rule="evenodd" clip-rule="evenodd" fill="#FFFFFF" d="M1360.593,81.759c12.991,0,25.986,0,38.979,0
			c0,3.997,0,7.997,0,11.993c-8.404,0-16.811,0-25.214,0c0,2.727,0,5.453,0,8.178c8.222,0,16.446,0,24.669,0
			c0,3.998,0,7.996,0,11.994c-8.223,0-16.447,0-24.669,0c0,2.998,0,5.996,0,8.994c8.403,0,16.81,0,25.214,0
			c0,3.998,0,7.996,0,11.994c-12.992,0-25.987,0-38.979,0C1360.593,117.195,1360.593,99.475,1360.593,81.759z"/>
		<path fill-rule="evenodd" clip-rule="evenodd" fill="#FFFFFF" d="M1406.794,81.759c14.491,0,28.986,0,43.477,0
			c0,3.997,0,7.997,0,11.993c-4.951,0-9.904,0-14.855,0c0,13.719,0,27.441,0,41.16c-4.588,0-9.178,0-13.766,0
			c0-13.719,0-27.441,0-41.16c-4.951,0-9.903,0-14.855,0C1406.794,89.756,1406.794,85.756,1406.794,81.759z"/>
		<path fill-rule="evenodd" clip-rule="evenodd" fill="#FFFFFF" d="M1280.591,120.875c10.688-0.314,11.182,13.273,2.18,14.99
			c-5.431,1.037-10.143-4.514-8.313-9.813C1275.53,122.949,1277.65,122.176,1280.591,120.875z"/>
	</g>
</g>
</svg>
